<mxfile host="app.diagrams.net" agent="Mozilla/5.0 (Macintosh; Intel Mac OS X 10_15_7) AppleWebKit/537.36 (KHTML, like Gecko) Chrome/133.0.0.0 Safari/537.36" version="25.0.3">
  <diagram name="Page-1" id="FtTGXNtZOGxSPJ5oTYqy">
    <mxGraphModel dx="2069" dy="819" grid="1" gridSize="10" guides="1" tooltips="1" connect="1" arrows="1" fold="1" page="1" pageScale="1" pageWidth="827" pageHeight="1169" math="0" shadow="0">
      <root>
        <mxCell id="0" />
        <mxCell id="1" parent="0" />
        <mxCell id="JIvI2XGANF61RlIR17x4-4" style="edgeStyle=orthogonalEdgeStyle;rounded=0;orthogonalLoop=1;jettySize=auto;html=1;exitX=0.5;exitY=1;exitDx=0;exitDy=0;entryX=0.5;entryY=0;entryDx=0;entryDy=0;" edge="1" parent="1" source="JIvI2XGANF61RlIR17x4-1" target="JIvI2XGANF61RlIR17x4-3">
          <mxGeometry relative="1" as="geometry" />
        </mxCell>
        <mxCell id="JIvI2XGANF61RlIR17x4-1" value="Strat" style="rounded=1;whiteSpace=wrap;html=1;fontSize=16;" vertex="1" parent="1">
          <mxGeometry x="170" y="160" width="120" height="60" as="geometry" />
        </mxCell>
        <mxCell id="JIvI2XGANF61RlIR17x4-8" style="edgeStyle=orthogonalEdgeStyle;rounded=0;orthogonalLoop=1;jettySize=auto;html=1;exitX=0.5;exitY=1;exitDx=0;exitDy=0;entryX=0.5;entryY=0;entryDx=0;entryDy=0;" edge="1" parent="1" source="JIvI2XGANF61RlIR17x4-2" target="JIvI2XGANF61RlIR17x4-7">
          <mxGeometry relative="1" as="geometry" />
        </mxCell>
        <mxCell id="JIvI2XGANF61RlIR17x4-2" value="&lt;div style=&quot;color: rgb(204, 204, 204); background-color: rgb(31, 31, 31); font-family: Menlo, Monaco, &amp;quot;Courier New&amp;quot;, monospace; line-height: 18px; white-space: pre;&quot;&gt;&lt;div&gt;&lt;span style=&quot;color: #808080;&quot;&gt;&amp;lt;&lt;/span&gt;&lt;span style=&quot;color: #4ec9b0;&quot;&gt;Form.Item&lt;/span&gt; &lt;span style=&quot;color: #9cdcfe;&quot;&gt;label&lt;/span&gt;&lt;span style=&quot;color: #d4d4d4;&quot;&gt;=&lt;/span&gt;&lt;span style=&quot;color: #569cd6;&quot;&gt;{&lt;/span&gt;&lt;span style=&quot;color: #808080;&quot;&gt;&amp;lt;&lt;/span&gt;&lt;span style=&quot;color: #569cd6;&quot;&gt;div&lt;/span&gt;&lt;span style=&quot;color: #d4d4d4;&quot;&gt; &lt;/span&gt;&lt;span style=&quot;color: #9cdcfe;&quot;&gt;className&lt;/span&gt;&lt;span style=&quot;color: #d4d4d4;&quot;&gt;=&lt;/span&gt;&lt;span style=&quot;color: #569cd6;&quot;&gt;{&lt;/span&gt;&lt;span style=&quot;color: #4fc1ff;&quot;&gt;styles&lt;/span&gt;&lt;span style=&quot;color: #d4d4d4;&quot;&gt;.&lt;/span&gt;&lt;span style=&quot;color: #9cdcfe;&quot;&gt;factorsTitle&lt;/span&gt;&lt;span style=&quot;color: #569cd6;&quot;&gt;}&lt;/span&gt;&lt;span style=&quot;color: #808080;&quot;&gt;&amp;gt;&lt;/span&gt;&lt;span style=&quot;color: #d4d4d4;&quot;&gt;Premium Factors:&lt;/span&gt;&lt;span style=&quot;color: #808080;&quot;&gt;&amp;lt;/&lt;/span&gt;&lt;span style=&quot;color: #569cd6;&quot;&gt;div&lt;/span&gt;&lt;span style=&quot;color: #808080;&quot;&gt;&amp;gt;&lt;/span&gt;&lt;span style=&quot;color: #569cd6;&quot;&gt;}&lt;/span&gt; &lt;span style=&quot;color: #808080;&quot;&gt;/&amp;gt;&lt;/span&gt;&lt;/div&gt;&lt;br&gt;&lt;div&gt;        &lt;span style=&quot;color: #808080;&quot;&gt;&amp;lt;&lt;/span&gt;&lt;span style=&quot;color: #4ec9b0;&quot;&gt;CalculationFactors&lt;/span&gt; &lt;span style=&quot;color: #9cdcfe;&quot;&gt;form&lt;/span&gt;&lt;span style=&quot;color: #d4d4d4;&quot;&gt;=&lt;/span&gt;&lt;span style=&quot;color: #569cd6;&quot;&gt;{&lt;/span&gt;&lt;span style=&quot;color: #4fc1ff;&quot;&gt;form&lt;/span&gt;&lt;span style=&quot;color: #569cd6;&quot;&gt;}&lt;/span&gt; &lt;span style=&quot;color: #9cdcfe;&quot;&gt;calculationDetail&lt;/span&gt;&lt;span style=&quot;color: #d4d4d4;&quot;&gt;=&lt;/span&gt;&lt;span style=&quot;color: #569cd6;&quot;&gt;{&lt;/span&gt;&lt;span style=&quot;color: #4fc1ff;&quot;&gt;calculationDetail&lt;/span&gt;&lt;span style=&quot;color: #569cd6;&quot;&gt;}&lt;/span&gt; &lt;span style=&quot;color: #808080;&quot;&gt;/&amp;gt;&lt;/span&gt;&lt;/div&gt;&lt;/div&gt;" style="rounded=1;whiteSpace=wrap;html=1;" vertex="1" parent="1">
          <mxGeometry x="170" y="410" width="120" height="60" as="geometry" />
        </mxCell>
        <mxCell id="JIvI2XGANF61RlIR17x4-5" style="edgeStyle=orthogonalEdgeStyle;rounded=0;orthogonalLoop=1;jettySize=auto;html=1;exitX=0.5;exitY=1;exitDx=0;exitDy=0;entryX=0.5;entryY=0;entryDx=0;entryDy=0;" edge="1" parent="1" source="JIvI2XGANF61RlIR17x4-3" target="JIvI2XGANF61RlIR17x4-2">
          <mxGeometry relative="1" as="geometry" />
        </mxCell>
        <mxCell id="JIvI2XGANF61RlIR17x4-6" value="N" style="edgeLabel;html=1;align=center;verticalAlign=middle;resizable=0;points=[];" vertex="1" connectable="0" parent="JIvI2XGANF61RlIR17x4-5">
          <mxGeometry x="-0.2667" relative="1" as="geometry">
            <mxPoint as="offset" />
          </mxGeometry>
        </mxCell>
        <mxCell id="JIvI2XGANF61RlIR17x4-10" style="edgeStyle=orthogonalEdgeStyle;rounded=0;orthogonalLoop=1;jettySize=auto;html=1;exitX=1;exitY=0.5;exitDx=0;exitDy=0;entryX=0;entryY=0.5;entryDx=0;entryDy=0;" edge="1" parent="1" source="JIvI2XGANF61RlIR17x4-3" target="JIvI2XGANF61RlIR17x4-9">
          <mxGeometry relative="1" as="geometry" />
        </mxCell>
        <mxCell id="JIvI2XGANF61RlIR17x4-11" value="Y" style="edgeLabel;html=1;align=center;verticalAlign=middle;resizable=0;points=[];" vertex="1" connectable="0" parent="JIvI2XGANF61RlIR17x4-10">
          <mxGeometry x="-0.1333" relative="1" as="geometry">
            <mxPoint as="offset" />
          </mxGeometry>
        </mxCell>
        <mxCell id="JIvI2XGANF61RlIR17x4-3" value="&lt;span style=&quot;font-family: Consolas, &amp;quot;Bitstream Vera Sans Mono&amp;quot;, &amp;quot;Courier New&amp;quot;, Courier, monospace; text-align: left; white-space: pre;&quot;&gt;multiSubject === true?&lt;/span&gt;" style="shape=parallelogram;perimeter=parallelogramPerimeter;whiteSpace=wrap;html=1;fixedSize=1;fontSize=16;fillColor=#d5e8d4;strokeColor=#82b366;" vertex="1" parent="1">
          <mxGeometry x="170" y="290" width="120" height="60" as="geometry" />
        </mxCell>
        <mxCell id="JIvI2XGANF61RlIR17x4-16" style="edgeStyle=orthogonalEdgeStyle;rounded=0;orthogonalLoop=1;jettySize=auto;html=1;exitX=0.5;exitY=1;exitDx=0;exitDy=0;entryX=0.5;entryY=0;entryDx=0;entryDy=0;" edge="1" parent="1" source="JIvI2XGANF61RlIR17x4-7" target="JIvI2XGANF61RlIR17x4-15">
          <mxGeometry relative="1" as="geometry" />
        </mxCell>
        <mxCell id="JIvI2XGANF61RlIR17x4-7" value="遍历trialCalculationFactors" style="rounded=1;whiteSpace=wrap;html=1;" vertex="1" parent="1">
          <mxGeometry x="170" y="555" width="120" height="60" as="geometry" />
        </mxCell>
        <mxCell id="JIvI2XGANF61RlIR17x4-13" style="edgeStyle=orthogonalEdgeStyle;rounded=0;orthogonalLoop=1;jettySize=auto;html=1;exitX=0.5;exitY=1;exitDx=0;exitDy=0;entryX=0.5;entryY=0;entryDx=0;entryDy=0;" edge="1" parent="1" source="JIvI2XGANF61RlIR17x4-9" target="JIvI2XGANF61RlIR17x4-12">
          <mxGeometry relative="1" as="geometry" />
        </mxCell>
        <mxCell id="JIvI2XGANF61RlIR17x4-9" value="&amp;lt;MultiSubjectCalculation&amp;gt;" style="rounded=1;whiteSpace=wrap;html=1;fontSize=16;fillColor=#d5e8d4;strokeColor=#82b366;" vertex="1" parent="1">
          <mxGeometry x="560" y="290" width="190" height="60" as="geometry" />
        </mxCell>
        <mxCell id="JIvI2XGANF61RlIR17x4-14" style="edgeStyle=orthogonalEdgeStyle;rounded=0;orthogonalLoop=1;jettySize=auto;html=1;exitX=0.5;exitY=1;exitDx=0;exitDy=0;entryX=0.5;entryY=0;entryDx=0;entryDy=0;" edge="1" parent="1" source="JIvI2XGANF61RlIR17x4-12" target="JIvI2XGANF61RlIR17x4-7">
          <mxGeometry relative="1" as="geometry" />
        </mxCell>
        <mxCell id="JIvI2XGANF61RlIR17x4-12" value="&lt;div&gt;&lt;span style=&quot;font-family: Consolas, &amp;quot;Bitstream Vera Sans Mono&amp;quot;, &amp;quot;Courier New&amp;quot;, Courier, monospace; font-size: 14px; text-align: left; white-space: pre;&quot;&gt;遍历&lt;/span&gt;&lt;/div&gt;&lt;span style=&quot;font-family: Consolas, &amp;quot;Bitstream Vera Sans Mono&amp;quot;, &amp;quot;Courier New&amp;quot;, Courier, monospace; font-size: 14px; text-align: left; white-space: pre;&quot;&gt;multiSubjectTrialCalcFactors&lt;/span&gt;" style="rounded=1;whiteSpace=wrap;html=1;fillColor=#d5e8d4;strokeColor=#82b366;" vertex="1" parent="1">
          <mxGeometry x="560" y="430" width="190" height="60" as="geometry" />
        </mxCell>
        <mxCell id="JIvI2XGANF61RlIR17x4-15" value="End" style="rounded=1;whiteSpace=wrap;html=1;fontSize=16;" vertex="1" parent="1">
          <mxGeometry x="170" y="700" width="120" height="60" as="geometry" />
        </mxCell>
      </root>
    </mxGraphModel>
  </diagram>
</mxfile>
